HIERARCHY
ROOT Ischium
{
  OFFSET 0.0 0.0 0.0
  CHANNELS 6 Xposition Yposition Zposition Yrotation Zrotation Xrotation
  JOINT Stifle
  {
    OFFSET 11.4 -15.900000000000006 0.0
    CHANNELS 3 Yrotation Zrotation Xrotation
    JOINT Offhindhock
    {
      OFFSET -13.200000000000001 -14.699999999999989 0.0
      CHANNELS 3 Yrotation Zrotation Xrotation
      JOINT Offhindfetlock
      {
        OFFSET 0.6000000000000001 -18.30000000000001 0.0
        CHANNELS 3 Yrotation Zrotation Xrotation
        End Site
        {
          OFFSET -2.7 -6.599999999999994 0.0
        }
      }
    }
    JOINT Nearhindhock
    {
      OFFSET 6.0 -16.799999999999997 0.0
      CHANNELS 3 Yrotation Zrotation Xrotation
      JOINT Nearhindfetlock
      {
        OFFSET 3.8999999999999986 -17.700000000000003 0.0
        CHANNELS 3 Yrotation Zrotation Xrotation
        End Site
        {
          OFFSET 5.400000000000002 -5.699999999999989 0.0
        }
      }
    }
  }
  JOINT Hip
  {
    OFFSET 10.799999999999999 5.399999999999999 0.0
    CHANNELS 3 Yrotation Zrotation Xrotation
    JOINT Wither
    {
      OFFSET 37.8 5.700000000000003 0.0
      CHANNELS 3 Yrotation Zrotation Xrotation
      JOINT Eye
      {
        OFFSET 42.900000000000006 -3.6000000000000014 0.0
        CHANNELS 3 Yrotation Zrotation Xrotation
        End Site
        {
          OFFSET 10.199999999999989 -15.299999999999997 0.0
        }
      }
      JOINT Midshoulder
      {
        OFFSET 8.700000000000003 -9.300000000000004 0.0
        CHANNELS 3 Yrotation Zrotation Xrotation
        JOINT Shoulder
        {
          OFFSET 2.3999999999999915 -12.599999999999994 0.0
          CHANNELS 3 Yrotation Zrotation Xrotation
          JOINT Girth
          {
            OFFSET -17.39999999999999 -8.700000000000003 0.0
            CHANNELS 3 Yrotation Zrotation Xrotation
            JOINT Nearknee
            {
              OFFSET 37.2 -12.900000000000006 0.0
              CHANNELS 3 Yrotation Zrotation Xrotation
              JOINT Nearfrontfetlock
              {
                OFFSET 6.0 -12.899999999999991 0.0
                CHANNELS 3 Yrotation Zrotation Xrotation
                End Site
                {
                  OFFSET 5.699999999999989 -7.200000000000003 0.0
                }
              }
            }
          }
          JOINT Elbow
          {
            OFFSET -17.39999999999999 -6.0 0.0
            CHANNELS 3 Yrotation Zrotation Xrotation
            JOINT Offknee
            {
              OFFSET 1.5 -20.10000000000001 0.0
              CHANNELS 3 Yrotation Zrotation Xrotation
              JOINT Offfrontfetlock
              {
                OFFSET -3.6000000000000014 -13.199999999999989 0.0
                CHANNELS 3 Yrotation Zrotation Xrotation
                End Site
                {
                  OFFSET 2.3999999999999986 -7.800000000000011 0.0
                }
              }
            }
          }
        }
      }
    }
  }
}
MOTION
Frames: 23
Frame Time: 0.016666666666666666
89.1 -58.5 0.0 0.0 0.0 0.0 0.0 1.2300884477573881 0.0 0.0 -1.6333298684887152 0.0 0.0 -9.643043465710688 0.0 0.0 -11.649095200760415 0.0 0.0 7.630151871147949 0.0 0.0 -7.125016348901807 0.0 0.0 4.149123045586966 0.0 0.0 -15.797291253473231 0.0 0.0 5.08898255286063 0.0 0.0 1.1918345766409169 0.0 0.0 4.9392155421262265 0.0 0.0 -4.837262953790973 0.0 0.0 6.94688653842114 0.0 0.0 8.414121910630511 0.0 0.0 -6.831663511755788 0.0 0.0 0.6809025050192109 0.7
90.3 -57.6 0.0 0.0 0.0 0.0 0.0 1.7655474333221057 0.0 0.0 -0.7496403103827172 0.0 0.0 -7.2337024901405576 0.0 0.0 -13.689336956800176 0.0 0.0 8.023604745365146 0.0 0.0 -9.544525565558105 0.0 0.0 3.907256745119158 0.0 0.0 -15.912238624813478 0.0 0.0 0.11924182475273341 0.0 0.0 2.090703692049957 0.0 0.0 5.8472554412731865 0.0 0.0 -2.569883440009446 0.0 0.0 9.032638772832327 0.0 0.0 7.970232356517874 0.0 0.0 -7.4924159068106855 0.0 0.0 3.4868297710370335 0.7166666666666667
91.5 -57.0 0.0 0.0 0.0 0.0 0.0 3.2877343947054736 0.0 0.0 2.7292715061072226 0.0 0.0 -10.270802634677823 0.0 0.0 -17.05126185555349 0.0 0.0 3.393251082072844 0.0 0.0 -9.766679395772629 0.0 0.0 3.0840600136878327 0.0 0.0 -14.879019631217245 0.0 0.0 3.59383675089264 0.0 0.0 -5.885205413774776 0.0 0.0 8.230975101190287 0.0 0.0 -2.569883440009446 0.0 0.0 8.74616226255517 0.0 0.0 7.970232356517874 0.0 0.0 -6.721924974817841 0.0 0.0 0.3965042551328201 0.7333333333333333
92.7 -57.0 0.0 0.0 0.0 0.0 0.0 3.2877343947054736 0.0 0.0 3.2627363464856267 0.0 0.0 -8.89437919200831 0.0 0.0 -20.535228054635436 0.0 0.0 3.7632633915996263 0.0 0.0 -7.806400829235687 0.0 0.0 2.1261180840640734 0.0 0.0 -14.355590812568215 0.0 0.0 4.398705354995591 0.0 0.0 -7.60446774769833 0.0 0.0 6.219229688791187 0.0 0.0 -3.7084281571304034 0.0 0.0 3.4990233609384056 0.0 0.0 7.539445139509393 0.0 0.0 -8.412517041395088 0.0 0.0 -1.7654069084620274 0.75
94.5 -57.0 0.0 0.0 0.0 0.0 0.0 3.711943428178202 0.0 0.0 3.3813609792943695 0.0 0.0 -1.877877447285382 0.0 0.0 -22.2563862605531 0.0 0.0 0.9665548883234093 0.0 0.0 -5.667285678239056 0.0 0.0 1.0368821145302407 0.0 0.0 -13.22297031494161 0.0 0.0 6.672794123722619 0.0 0.0 -15.298286325563865 0.0 0.0 6.027530295521342 0.0 0.0 -3.4543465432391125 0.0 0.0 2.608906313293271 0.0 0.0 5.4183487428478285 0.0 0.0 -8.353510080265654 0.0 0.0 -4.247329803604382 0.7666666666666667
95.1 -57.0 0.0 0.0 0.0 0.0 0.0 9.360190801913344 0.0 0.0 4.758069707064187 0.0 0.0 0.8058977121837985 0.0 0.0 -25.618311159306455 0.0 0.0 -2.1210963966612755 0.0 0.0 -6.581944655178027 0.0 0.0 1.9639510887929932 0.0 0.0 -13.638149856086441 0.0 0.0 5.088982552860557 0.0 0.0 -22.376473277853517 0.0 0.0 7.352379359892376 0.0 0.0 -4.073364492860984 0.0 0.0 1.1095900470658664 0.0 0.0 7.069818119819557 0.0 0.0 -12.514214114759325 0.0 0.0 -3.923889322752914 0.7833333333333333
97.2 -56.4 0.0 0.0 0.0 0.0 0.0 8.087160781856578 0.0 0.0 3.372079304417901 0.0 0.0 6.126851410007502 0.0 0.0 -28.71171218667099 0.0 0.0 -2.963620657401762 0.0 0.0 -4.590543185605909 0.0 0.0 -1.1637397806564536 0.0 0.0 -12.379104648911182 0.0 0.0 9.340560404168947 0.0 0.0 -16.954472962592277 0.0 0.0 6.9112271190246615 0.0 0.0 -5.762185690137338 0.0 0.0 -0.981416288846441 0.0 0.0 10.122465808144355 0.0 0.0 -12.756837180795502 0.0 0.0 -9.188836077358738 0.8
98.4 -55.5 0.0 0.0 0.0 0.0 0.0 12.25146039813391 0.0 0.0 3.8042682312125335 0.0 0.0 9.781415206237591 0.0 0.0 -34.635456630444246 0.0 0.0 -4.54280354869785 0.0 0.0 -6.661301639770017 0.0 0.0 -1.5658483832133672 0.0 0.0 -12.15851408518968 0.0 0.0 9.340560404168869 0.0 0.0 -18.480349589579138 0.0 0.0 6.900328169277245 0.0 0.0 -7.946854217205634 0.0 0.0 -0.40617678684745573 0.0 0.0 9.211839500598527 0.0 0.0 -12.033059318716157 0.0 0.0 -3.544766455594803 0.8166666666666667
100.2 -55.5 0.0 0.0 0.0 0.0 0.0 13.324845524769517 0.0 0.0 6.384866808601302 0.0 0.0 6.005261869444395 0.0 0.0 -39.30764811610661 0.0 0.0 -4.660776847002193 0.0 0.0 -5.460212592148247 0.0 0.0 -2.8646395023355407 0.0 0.0 -11.011744217795698 0.0 0.0 13.520638856884842 0.0 0.0 -20.246620075588254 0.0 0.0 4.792034046931954 0.0 0.0 -9.213906015108735 0.0 0.0 -2.501151898130178 0.0 0.0 7.970232356517921 0.0 0.0 -17.508413215478054 0.0 0.0 -5.938937778484515 0.8333333333333334
110.1 -54.0 0.0 0.0 0.0 0.0 0.0 17.943812282027324 0.0 0.0 18.723954086927478 0.0 0.0 22.26766451313629 0.0 0.0 -55.634501626671636 0.0 0.0 -15.842531057198812 0.0 0.0 -5.11731484997261 0.0 0.0 -4.390316514716715 0.0 0.0 -9.652231159623817 0.0 0.0 8.61898924075326 0.0 0.0 -10.784297867562595 0.0 0.0 0.7117122060358106 0.0 0.0 -27.884327792234036 0.0 0.0 -4.534022429620558 0.0 0.0 4.059527635239459 0.0 0.0 -11.492208994336169 0.0 0.0 -19.369036376891138 0.85
111.6 -54.0 0.0 0.0 0.0 0.0 0.0 17.02699506372754 0.0 0.0 23.973141607661734 0.0 0.0 24.687173729792654 0.0 0.0 -57.146477391103666 0.0 0.0 -13.281040261694237 0.0 0.0 -4.0219901770201485 0.0 0.0 -4.521678408003896 0.0 0.0 -9.895161560399245 0.0 0.0 3.756762698990889 0.0 0.0 -4.775291910067849 0.0 0.0 -8.537736462515939e-07 0.0 0.0 -28.453921479496305 0.0 0.0 -4.960798741524486 0.0 0.0 4.506742523332302 0.0 0.0 -4.267893300290772 0.0 0.0 -21.17573941710461 0.8666666666666667
112.2 -54.3 0.0 0.0 0.0 0.0 0.0 19.429253500802744 0.0 0.0 26.39843360382139 0.0 0.0 27.76050624086599 0.0 0.0 -58.12168737020084 0.0 0.0 -16.69383616571831 0.0 0.0 -3.871256231985658 0.0 0.0 -2.684606223631019 0.0 0.0 -10.636625528387327 0.0 0.0 0.17344784406913652 0.0 0.0 -6.148834440659826 0.0 0.0 0.6902771978650802 0.0 0.0 -26.400408585670462 0.0 0.0 -9.482687522982665 0.0 0.0 7.539445139509247 0.0 0.0 -6.6874025169470785 0.0 0.0 -16.869879737329796 0.8833333333333333
112.8 -56.1 0.0 0.0 0.0 0.0 0.0 23.141788037566993 0.0 0.0 27.8863011326492 0.0 0.0 30.12750576079811 0.0 0.0 -59.536509208080666 0.0 0.0 -18.572568525074136 0.0 0.0 0.41517954114465516 0.0 0.0 -1.8392214257159432 0.0 0.0 -10.546967080928312 0.0 0.0 2.7160818880987447 0.0 0.0 -9.236140168584544 0.0 0.0 1.4594493549924203 0.0 0.0 -30.682727942243357 0.0 0.0 -13.633972789404284 0.0 0.0 7.149683944191245 0.0 0.0 3.0585133598787966 0.0 0.0 -22.520565602896916 0.9
114.9 -56.1 0.0 0.0 0.0 0.0 0.0 22.600710717100572 0.0 0.0 34.426686960845785 0.0 0.0 28.772790509767475 0.0 0.0 -60.94919661597622 0.0 0.0 -18.572568525074136 0.0 0.0 -1.2636725516583032 0.0 0.0 1.1135539205309788 0.0 0.0 -12.281672688038219 0.0 0.0 4.771557659108157 0.0 0.0 -18.480349589579156 0.0 0.0 2.1747441146100055 0.0 0.0 -31.47411331573349 0.0 0.0 -14.103599809093945 0.0 0.0 9.584853628396534 0.0 0.0 7.826863776721245 0.0 0.0 -23.22507954528526 0.9166666666666666
116.1 -55.8 0.0 0.0 0.0 0.0 0.0 23.12097591370458 0.0 0.0 38.986871154154436 0.0 0.0 30.857348824822285 0.0 0.0 -59.82340409976339 0.0 0.0 -20.309082182157244 0.0 0.0 -3.247342790322871 0.0 0.0 1.3510128668162869 0.0 0.0 -12.810831481271697 0.0 0.0 8.249344178906249 0.0 0.0 -22.984766594943387 0.0 0.0 4.698680517299438 0.0 0.0 -35.33709618723854 0.0 0.0 -19.117563233868786 0.0 0.0 11.625061919484232 0.0 0.0 13.416498726266939 0.0 0.0 -26.16854692194483 0.9333333333333333
117.3 -55.8 0.0 0.0 0.0 0.0 0.0 23.532528502045285 0.0 0.0 40.472328309642236 0.0 0.0 30.29333968125919 0.0 0.0 -60.2551187030578 0.0 0.0 -23.735875339447674 0.0 0.0 -3.247342790322759 0.0 0.0 0.810285620206862 0.0 0.0 -13.02208994768726 0.0 0.0 6.972769286026433 0.0 0.0 -20.792277669003994 0.0 0.0 5.262395399595262 0.0 0.0 -36.71507943354347 0.0 0.0 -20.27704689198552 0.0 0.0 14.152905621824036 0.0 0.0 19.776329969076997 0.0 0.0 -23.078221406040825 0.95
118.2 -55.8 0.0 0.0 0.0 0.0 0.0 24.914762071987745 0.0 0.0 43.92042445705227 0.0 0.0 33.041524565172374 0.0 0.0 -59.95514354075389 0.0 0.0 -25.420559657343983 0.0 0.0 -3.9451862290374176 0.0 0.0 0.8870895681898512 0.0 0.0 -12.810831481271697 0.0 0.0 4.262449299104727 0.0 0.0 -17.304099619219453 0.0 0.0 5.630682757635168 0.0 0.0 -39.63555909100409 0.0 0.0 -24.943905263424593 0.0 0.0 16.048148455779636 0.0 0.0 22.987435074652236 0.0 0.0 -21.400989712909098 0.9666666666666667
122.1 -57.9 0.0 0.0 0.0 0.0 0.0 25.94752935884077 0.0 0.0 41.922544600575655 0.0 0.0 29.230931381259808 0.0 0.0 -64.26406286273526 0.0 0.0 -28.499517030173852 0.0 0.0 2.174744114610173 0.0 0.0 3.4470440463482572 0.0 0.0 -13.156684050248153 0.0 0.0 10.750966993188039 0.0 0.0 -22.094230341582755 0.0 0.0 4.86451443776053 0.0 0.0 -42.26431431324769 0.0 0.0 -28.596128043730946 0.0 0.0 19.307734071529953 0.0 0.0 36.49571190065036 0.0 0.0 -8.70737027152043 0.9833333333333333
125.1 -57.0 0.0 0.0 0.0 0.0 0.0 21.53164901050079 0.0 0.0 35.91353864308118 0.0 0.0 27.86700384965685 0.0 0.0 -67.45627557792008 0.0 0.0 -32.482037602002926 0.0 0.0 -1.5481576989779817 0.0 0.0 5.586935415477389 0.0 0.0 -13.734122596332677 0.0 0.0 12.991721896026043 0.0 0.0 -26.039416570620283 0.0 0.0 6.384163939512426 0.0 0.0 -50.89166745731293 0.0 0.0 -28.59612804373082 0.0 0.0 22.96160645824799 0.0 0.0 40.196647714144696 0.0 0.0 2.0825652797307956 1.0
127.2 -56.4 0.0 0.0 0.0 0.0 0.0 17.97583898607748 0.0 0.0 35.168970565044596 0.0 0.0 27.08978319877872 0.0 0.0 -67.92431198123691 0.0 0.0 -33.4634538908493 0.0 0.0 -0.7957235527392753 0.0 0.0 4.941335468956025 0.0 0.0 -13.544682109450495 0.0 0.0 12.054696866892645 0.0 0.0 -16.140122910417787 0.0 0.0 4.698680517299438 0.0 0.0 -53.02445567699609 0.0 0.0 -32.53854863201596 0.0 0.0 26.718453165320092 0.0 0.0 45.54006066273961 0.0 0.0 4.36959164839911 1.0166666666666666
127.5 -56.7 0.0 0.0 0.0 0.0 0.0 19.564164523644994 0.0 0.0 32.94991798567927 0.0 0.0 27.08978319877872 0.0 0.0 -69.05252941304884 0.0 0.0 -31.12492566960858 0.0 0.0 -2.260501911141195 0.0 0.0 5.9989835582033635 0.0 0.0 -12.992331062111973 0.0 0.0 13.885284877199743 0.0 0.0 -17.909314216464285 0.0 0.0 4.698680517299438 0.0 0.0 -53.349205605490006 0.0 0.0 -35.7842107177551 0.0 0.0 28.205568570462564 0.0 0.0 46.95793576413492 0.0 0.0 10.390604265297313 1.0333333333333334
128.1 -56.1 0.0 0.0 0.0 0.0 0.0 19.811823745902036 0.0 0.0 30.1839733938533 0.0 0.0 27.08978319877872 0.0 0.0 -68.626319998804 0.0 0.0 -31.39635067391402 0.0 0.0 -4.316027519865585 0.0 0.0 4.840950842005552 0.0 0.0 -14.407174538664465 0.0 0.0 8.954921557863857 0.0 0.0 -8.875145434566138 0.0 0.0 5.527540151656125 0.0 0.0 -60.31376328801649 0.0 0.0 -36.25383773744475 0.0 0.0 25.97439396243132 0.0 0.0 48.86220905386514 0.0 0.0 17.79992308287085 1.05
129.9 -56.1 0.0 0.0 0.0 0.0 0.0 17.97583898607746 0.0 0.0 30.899088636832502 0.0 0.0 24.687173729792654 0.0 0.0 -69.99687981662848 0.0 0.0 -26.675975563231066 0.0 0.0 -2.6025622024998034 0.0 0.0 4.419384152081192 0.0 0.0 -15.537314065664985 0.0 0.0 4.572153199063497 0.0 0.0 -8.80936385668065 0.0 0.0 4.939215542126152 0.0 0.0 -60.9241472912613 0.0 0.0 -38.11645868675141 0.0 0.0 28.09549035909279 0.0 0.0 49.439476971229595 0.0 0.0 18.986515702218266 1.0666666666666667
